# xmcd
#
# Track frame offsets:
#	150
#	13752
#	26585
#	39498
#	53819
#	65842
#	79946
#	90900
#	101982
#	115140
#	126989
#	138876
#	154055
#	164748
#	178916
#	189333
#	203292
#	215681
#	227196
#	240512
#
# Disc length: 3396 seconds
# Revision: 0
# Processed by: cddbd v1.5.2PL0 Copyright (c) Steve Scherf et al.
# Submitted via: dBpowerAMP V12.0
#
DISCID=160d4214
DTITLE=Ronnie Milsap - Four Albums On Two Discs CD1: Where My Heart Is and Pure Love
DYEAR=2019
DGENRE=Country
TTITLE0=That Girl Who Waits On Tables
TTITLE1=I Hate You
TTITLE2=You're Stronger Than Me
TTITLE3=Branded Man
TTITLE4=Where Love Goes When It Dies
TTITLE5=Brothers, Strangers And Friends
TTITLE6=(All Together Now) Let's Fall Apart
TTITLE7=Comin' Down With Love
TTITLE8=Pass Me By
TTITLE9=You're Drivin' Me Out Of Your Mind
TTITLE10=My Love Is Deep, My Love Is Wide
TTITLE11=Amazing Love
TTITLE12=Pure Love
TTITLE13=Four Walls
TTITLE14=Streets Of Gold
TTITLE15=Love The Second Time Around
TTITLE16=Please Don't Tell Me How The Story Ends
TTITLE17=All My Roads (Lead Back To You)
TTITLE18=Behind Closed Doors
TTITLE19=Blu Ridge Mountains Turnin' Green
EXTD=
EXTT0=
EXTT1=
EXTT2=
EXTT3=
EXTT4=
EXTT5=
EXTT6=
EXTT7=
EXTT8=
EXTT9=
EXTT10=
EXTT11=
EXTT12=
EXTT13=
EXTT14=
EXTT15=
EXTT16=
EXTT17=
EXTT18=
EXTT19=
PLAYORDER=
